<svg width="800" height="800" viewBox="0 0 800 800" fill="none" xmlns="http://www.w3.org/2000/svg">
<g clip-path="url(#clip0_64_65)">
<path d="M800 410.018C800 499.354 774.566 579.702 723.698 651.064C672.83 722.425 607.118 771.809 526.562 799.215C517.188 800.994 510.33 799.749 505.99 795.478C501.649 791.207 499.479 785.868 499.479 779.461V666.813C499.479 632.289 490.451 607.019 472.396 591.003C492.187 588.867 509.983 585.664 525.781 581.393C541.58 577.122 557.899 570.181 574.74 560.572C591.58 550.962 605.642 539.128 616.927 525.069C628.212 511.01 637.413 492.324 644.531 469.012C651.649 445.699 655.208 418.916 655.208 388.663C655.208 345.597 641.493 308.937 614.062 278.684C626.91 246.296 625.521 209.992 609.896 169.773C600.174 166.57 586.111 168.527 567.708 175.646C549.306 182.764 533.333 190.594 519.792 199.136L500 211.949C467.708 202.696 434.375 198.069 400 198.069C365.625 198.069 332.292 202.696 300 211.949C294.444 208.034 287.066 203.229 277.865 197.535C268.663 191.84 254.167 184.989 234.375 176.98C214.583 168.972 199.653 166.57 189.583 169.773C174.306 209.992 173.09 246.296 185.938 278.684C158.507 308.937 144.792 345.597 144.792 388.663C144.792 418.916 148.351 445.61 155.469 468.745C162.587 491.879 171.701 510.565 182.812 524.802C193.924 539.038 207.899 550.962 224.74 560.572C241.58 570.181 257.899 577.122 273.698 581.393C289.497 585.664 307.292 588.867 327.083 591.003C313.194 603.816 304.688 622.145 301.562 645.992C294.271 649.551 286.458 652.221 278.125 654C269.792 655.78 259.896 656.67 248.438 656.67C236.979 656.67 225.608 652.843 214.323 645.191C203.038 637.539 193.403 626.416 185.417 611.824C178.819 600.434 170.399 591.181 160.156 584.062C149.913 576.944 141.319 572.673 134.375 571.249L123.958 569.647C116.667 569.647 111.632 570.448 108.854 572.05C106.076 573.652 105.208 575.698 106.25 578.19C107.292 580.681 108.854 583.172 110.938 585.664C113.021 588.155 115.278 590.291 117.708 592.07L121.354 594.74C128.993 598.299 136.545 605.061 144.01 615.027C151.476 624.993 156.944 634.069 160.417 642.255L165.625 654.534C170.139 668.059 177.778 679.003 188.542 687.367C199.306 695.732 210.938 701.07 223.438 703.384C235.938 705.697 248.003 706.943 259.635 707.121C271.267 707.299 280.903 706.676 288.542 705.252L300.521 703.117C300.521 716.642 300.608 732.48 300.781 750.632C300.955 768.784 301.042 778.394 301.042 779.461C301.042 785.868 298.785 791.207 294.271 795.478C289.757 799.749 282.813 800.994 273.438 799.215C192.882 771.809 127.17 722.425 76.3021 651.064C25.434 579.702 0 499.354 0 410.018C0 335.631 17.8819 267.028 53.6458 204.208C89.4097 141.389 137.934 91.649 199.219 54.9894C260.503 18.3298 327.431 0 400 0C472.569 0 539.497 18.3298 600.781 54.9894C662.066 91.649 710.59 141.389 746.354 204.208C782.118 267.028 800 335.631 800 410.018Z" fill="white"/>
</g>
<defs>
<clipPath id="clip0_64_65">
<rect width="800" height="800" fill="white"/>
</clipPath>
</defs>
</svg>
